# Shield frame fitted to the DHD; positions in block units.
mtllib atlantis_shield_frame.mtl
g shield_part_0_0
usemtl material_1
v 0.310159021 0.080061625 0.049777888
v 0.310159021 0.000000000 0.049777888
v 0.137779465 0.000000000 -0.008205836
v 0.137779465 0.080061625 -0.008205836
vt 0.000000000 0.000000000
vt 0.000000000 0.075000000
vt 0.137500000 0.075000000
vt 0.137500000 0.000000000
f 1/1 2/2 3/3 4/4
g shield_part_0_1
usemtl material_1
v -0.026701334 0.080061625 1.123070590
v -0.026701334 0.000000000 1.123070590
v 0.310159021 0.000000000 0.049777888
v 0.310159021 0.080061625 0.049777888
vt 0.000000000 0.000000000
vt 0.000000000 0.075000000
vt 0.850000000 0.075000000
vt 0.850000000 0.000000000
f 5/5 6/6 7/7 8/8
g shield_part_0_2
usemtl material_1
v -0.199080890 0.080061625 1.065086865
v -0.199080890 0.000000000 1.065086865
v -0.026701334 0.000000000 1.123070590
v -0.026701334 0.080061625 1.123070590
vt 0.000000000 0.000000000
vt 0.000000000 0.075000000
vt 0.137500000 0.075000000
vt 0.137500000 0.000000000
f 9/9 10/10 11/11 12/12
g shield_part_0_3
usemtl material_1
v 0.137779465 0.080061625 -0.008205836
v 0.137779465 0.000000000 -0.008205836
v -0.199080890 0.000000000 1.065086865
v -0.199080890 0.080061625 1.065086865
vt 0.000000000 0.000000000
vt 0.000000000 0.075000000
vt 0.850000000 0.075000000
vt 0.850000000 0.000000000
f 13/13 14/14 15/15 16/16
g shield_part_0_4
usemtl material_1
v 0.137779465 0.080061625 -0.008205836
v -0.199080890 0.080061625 1.065086865
v -0.026701334 0.080061625 1.123070590
v 0.310159021 0.080061625 0.049777888
vt 0.000000000 0.000000000
vt 0.000000000 0.850000000
vt 0.137500000 0.850000000
vt 0.137500000 0.000000000
f 17/17 18/18 19/19 20/20
g shield_part_0_5
usemtl material_1
v -0.199080890 0.000000000 1.065086865
v 0.137779465 0.000000000 -0.008205836
v 0.310159021 0.000000000 0.049777888
v -0.026701334 0.000000000 1.123070590
vt 0.000000000 0.000000000
vt 0.000000000 0.850000000
vt 0.137500000 0.850000000
vt 0.137500000 0.000000000
f 21/21 22/22 23/23 24/24
g shield_part_1_6
usemtl material_1
v 0.082756274 0.940720680 0.619848877
v 0.082756274 0.827300207 0.619848877
v -0.024281987 0.827300207 0.583844160
v -0.024281987 0.940720680 0.583844160
vt 0.000000000 0.000000000
vt 0.000000000 0.106250000
vt 0.150000000 0.106250000
vt 0.150000000 0.000000000
f 25/25 26/26 27/27 28/28
g shield_part_1_7
usemtl material_1
v -0.013143779 0.940720680 0.925402279
v -0.013143779 0.827300207 0.925402279
v 0.082756274 0.827300207 0.619848877
v 0.082756274 0.940720680 0.619848877
vt 0.000000000 0.000000000
vt 0.000000000 0.106250000
vt 0.600000000 0.106250000
vt 0.600000000 0.000000000
f 29/29 30/30 31/31 32/32
g shield_part_1_8
usemtl material_1
v -0.120182041 0.940720680 0.889397563
v -0.120182041 0.827300207 0.889397563
v -0.013143779 0.827300207 0.925402279
v -0.013143779 0.940720680 0.925402279
vt 0.000000000 0.000000000
vt 0.000000000 0.106250000
vt 0.150000000 0.106250000
vt 0.150000000 0.000000000
f 33/33 34/34 35/35 36/36
g shield_part_1_9
usemtl material_1
v -0.024281987 0.940720680 0.583844160
v -0.024281987 0.827300207 0.583844160
v -0.120182041 0.827300207 0.889397563
v -0.120182041 0.940720680 0.889397563
vt 0.000000000 0.000000000
vt 0.000000000 0.106250000
vt 0.600000000 0.106250000
vt 0.600000000 0.000000000
f 37/37 38/38 39/39 40/40
g shield_part_1_10
usemtl material_1
v -0.024281987 0.940720680 0.583844160
v -0.120182041 0.940720680 0.889397563
v -0.013143779 0.940720680 0.925402279
v 0.082756274 0.940720680 0.619848877
vt 0.000000000 0.000000000
vt 0.000000000 0.600000000
vt 0.150000000 0.600000000
vt 0.150000000 0.000000000
f 41/41 42/42 43/43 44/44
g shield_part_1_11
usemtl material_1
v -0.120182041 0.827300207 0.889397563
v -0.024281987 0.827300207 0.583844160
v 0.082756274 0.827300207 0.619848877
v -0.013143779 0.827300207 0.925402279
vt 0.000000000 0.000000000
vt 0.000000000 0.600000000
vt 0.150000000 0.600000000
vt 0.150000000 0.000000000
f 45/45 46/46 47/47 48/48
g shield_part_2_12
usemtl material_0
v 0.248057891 0.092737870 0.151039020
v 0.248057891 0.080728659 0.151039020
v 0.130527046 0.080728659 0.111504888
v 0.130527046 0.092737870 0.111504888
vt 0.000000000 0.000000000
vt 0.000000000 0.011250000
vt 0.093750000 0.011250000
vt 0.093750000 0.000000000
f 49/49 50/50 51/51 52/52
g shield_part_2_13
usemtl material_0
v -0.019448915 0.092737870 1.003359865
v -0.019448915 0.080728659 1.003359865
v 0.248057891 0.080728659 0.151039020
v 0.248057891 0.092737870 0.151039020
vt 0.000000000 0.000000000
vt 0.000000000 0.011250000
vt 0.675000000 0.011250000
vt 0.675000000 0.000000000
f 53/53 54/54 55/55 56/56
g shield_part_2_14
usemtl material_0
v -0.136979760 0.092737870 0.963825733
v -0.136979760 0.080728659 0.963825733
v -0.019448915 0.080728659 1.003359865
v -0.019448915 0.092737870 1.003359865
vt 0.000000000 0.000000000
vt 0.000000000 0.011250000
vt 0.093750000 0.011250000
vt 0.093750000 0.000000000
f 57/57 58/58 59/59 60/60
g shield_part_2_15
usemtl material_0
v 0.130527046 0.092737870 0.111504888
v 0.130527046 0.080728659 0.111504888
v -0.136979760 0.080728659 0.963825733
v -0.136979760 0.092737870 0.963825733
vt 0.000000000 0.000000000
vt 0.000000000 0.011250000
vt 0.675000000 0.011250000
vt 0.675000000 0.000000000
f 61/61 62/62 63/63 64/64
g shield_part_2_16
usemtl material_0
v 0.130527046 0.092737870 0.111504888
v -0.136979760 0.092737870 0.963825733
v -0.019448915 0.092737870 1.003359865
v 0.248057891 0.092737870 0.151039020
vt 0.000000000 0.000000000
vt 0.000000000 0.675000000
vt 0.093750000 0.675000000
vt 0.093750000 0.000000000
f 65/65 66/66 67/67 68/68
g shield_part_2_17
usemtl material_0
v -0.136979760 0.080728659 0.963825733
v 0.130527046 0.080728659 0.111504888
v 0.248057891 0.080728659 0.151039020
v -0.019448915 0.080728659 1.003359865
vt 0.000000000 0.000000000
vt 0.000000000 0.675000000
vt 0.093750000 0.675000000
vt 0.093750000 0.000000000
f 69/69 70/70 71/71 72/72
g shield_part_3_18
usemtl material_1
v 1.862220535 0.080061625 -0.008205836
v 1.862220535 0.000000000 -0.008205836
v 1.689840979 0.000000000 0.049777888
v 1.689840979 0.080061625 0.049777888
vt 0.000000000 0.000000000
vt 0.000000000 0.075000000
vt 0.137500000 0.075000000
vt 0.137500000 0.000000000
f 73/73 74/74 75/75 76/76
g shield_part_3_19
usemtl material_1
v 2.199080890 0.080061625 1.065086865
v 2.199080890 0.000000000 1.065086865
v 1.862220535 0.000000000 -0.008205836
v 1.862220535 0.080061625 -0.008205836
vt 0.000000000 0.000000000
vt 0.000000000 0.075000000
vt 0.850000000 0.075000000
vt 0.850000000 0.000000000
f 77/77 78/78 79/79 80/80
g shield_part_3_20
usemtl material_1
v 2.026701334 0.080061625 1.123070590
v 2.026701334 0.000000000 1.123070590
v 2.199080890 0.000000000 1.065086865
v 2.199080890 0.080061625 1.065086865
vt 0.000000000 0.000000000
vt 0.000000000 0.075000000
vt 0.137500000 0.075000000
vt 0.137500000 0.000000000
f 81/81 82/82 83/83 84/84
g shield_part_3_21
usemtl material_1
v 1.689840979 0.080061625 0.049777888
v 1.689840979 0.000000000 0.049777888
v 2.026701334 0.000000000 1.123070590
v 2.026701334 0.080061625 1.123070590
vt 0.000000000 0.000000000
vt 0.000000000 0.075000000
vt 0.850000000 0.075000000
vt 0.850000000 0.000000000
f 85/85 86/86 87/87 88/88
g shield_part_3_22
usemtl material_1
v 1.689840979 0.080061625 0.049777888
v 2.026701334 0.080061625 1.123070590
v 2.199080890 0.080061625 1.065086865
v 1.862220535 0.080061625 -0.008205836
vt 0.000000000 0.000000000
vt 0.000000000 0.850000000
vt 0.137500000 0.850000000
vt 0.137500000 0.000000000
f 89/89 90/90 91/91 92/92
g shield_part_3_23
usemtl material_1
v 2.026701334 0.000000000 1.123070590
v 1.689840979 0.000000000 0.049777888
v 1.862220535 0.000000000 -0.008205836
v 2.199080890 0.000000000 1.065086865
vt 0.000000000 0.000000000
vt 0.000000000 0.850000000
vt 0.137500000 0.850000000
vt 0.137500000 0.000000000
f 93/93 94/94 95/95 96/96
g shield_part_4_24
usemtl material_1
v 2.024281987 0.940720680 0.583844160
v 2.024281987 0.827300207 0.583844160
v 1.917243726 0.827300207 0.619848877
v 1.917243726 0.940720680 0.619848877
vt 0.000000000 0.000000000
vt 0.000000000 0.106250000
vt 0.150000000 0.106250000
vt 0.150000000 0.000000000
f 97/97 98/98 99/99 100/100
g shield_part_4_25
usemtl material_1
v 2.120182041 0.940720680 0.889397563
v 2.120182041 0.827300207 0.889397563
v 2.024281987 0.827300207 0.583844160
v 2.024281987 0.940720680 0.583844160
vt 0.000000000 0.000000000
vt 0.000000000 0.106250000
vt 0.600000000 0.106250000
vt 0.600000000 0.000000000
f 101/101 102/102 103/103 104/104
g shield_part_4_26
usemtl material_1
v 2.013143779 0.940720680 0.925402279
v 2.013143779 0.827300207 0.925402279
v 2.120182041 0.827300207 0.889397563
v 2.120182041 0.940720680 0.889397563
vt 0.000000000 0.000000000
vt 0.000000000 0.106250000
vt 0.150000000 0.106250000
vt 0.150000000 0.000000000
f 105/105 106/106 107/107 108/108
g shield_part_4_27
usemtl material_1
v 1.917243726 0.940720680 0.619848877
v 1.917243726 0.827300207 0.619848877
v 2.013143779 0.827300207 0.925402279
v 2.013143779 0.940720680 0.925402279
vt 0.000000000 0.000000000
vt 0.000000000 0.106250000
vt 0.600000000 0.106250000
vt 0.600000000 0.000000000
f 109/109 110/110 111/111 112/112
g shield_part_4_28
usemtl material_1
v 1.917243726 0.940720680 0.619848877
v 2.013143779 0.940720680 0.925402279
v 2.120182041 0.940720680 0.889397563
v 2.024281987 0.940720680 0.583844160
vt 0.000000000 0.000000000
vt 0.000000000 0.600000000
vt 0.150000000 0.600000000
vt 0.150000000 0.000000000
f 113/113 114/114 115/115 116/116
g shield_part_4_29
usemtl material_1
v 2.013143779 0.827300207 0.925402279
v 1.917243726 0.827300207 0.619848877
v 2.024281987 0.827300207 0.583844160
v 2.120182041 0.827300207 0.889397563
vt 0.000000000 0.000000000
vt 0.000000000 0.600000000
vt 0.150000000 0.600000000
vt 0.150000000 0.000000000
f 117/117 118/118 119/119 120/120
g shield_part_5_30
usemtl material_0
v 1.869472954 0.092737870 0.111504888
v 1.869472954 0.080728659 0.111504888
v 1.751942109 0.080728659 0.151039020
v 1.751942109 0.092737870 0.151039020
vt 0.000000000 0.000000000
vt 0.000000000 0.011250000
vt 0.093750000 0.011250000
vt 0.093750000 0.000000000
f 121/121 122/122 123/123 124/124
g shield_part_5_31
usemtl material_0
v 2.136979760 0.092737870 0.963825733
v 2.136979760 0.080728659 0.963825733
v 1.869472954 0.080728659 0.111504888
v 1.869472954 0.092737870 0.111504888
vt 0.000000000 0.000000000
vt 0.000000000 0.011250000
vt 0.675000000 0.011250000
vt 0.675000000 0.000000000
f 125/125 126/126 127/127 128/128
g shield_part_5_32
usemtl material_0
v 2.019448915 0.092737870 1.003359865
v 2.019448915 0.080728659 1.003359865
v 2.136979760 0.080728659 0.963825733
v 2.136979760 0.092737870 0.963825733
vt 0.000000000 0.000000000
vt 0.000000000 0.011250000
vt 0.093750000 0.011250000
vt 0.093750000 0.000000000
f 129/129 130/130 131/131 132/132
g shield_part_5_33
usemtl material_0
v 1.751942109 0.092737870 0.151039020
v 1.751942109 0.080728659 0.151039020
v 2.019448915 0.080728659 1.003359865
v 2.019448915 0.092737870 1.003359865
vt 0.000000000 0.000000000
vt 0.000000000 0.011250000
vt 0.675000000 0.011250000
vt 0.675000000 0.000000000
f 133/133 134/134 135/135 136/136
g shield_part_5_34
usemtl material_0
v 1.751942109 0.092737870 0.151039020
v 2.019448915 0.092737870 1.003359865
v 2.136979760 0.092737870 0.963825733
v 1.869472954 0.092737870 0.111504888
vt 0.000000000 0.000000000
vt 0.000000000 0.675000000
vt 0.093750000 0.675000000
vt 0.093750000 0.000000000
f 137/137 138/138 139/139 140/140
g shield_part_5_35
usemtl material_0
v 2.019448915 0.080728659 1.003359865
v 1.751942109 0.080728659 0.151039020
v 1.869472954 0.080728659 0.111504888
v 2.136979760 0.080728659 0.963825733
vt 0.000000000 0.000000000
vt 0.000000000 0.675000000
vt 0.093750000 0.675000000
vt 0.093750000 0.000000000
f 141/141 142/142 143/143 144/144
g shield_part_9_36
usemtl material_1
v 0.151420609 1.057476972 0.048816828
v 0.151420609 0.920705111 0.048816828
v -0.038068007 0.920705111 0.048816828
v -0.038068007 1.057476972 0.048816828
vt 0.000000000 0.000000000
vt 0.000000000 0.128125000
vt 0.237500000 0.128125000
vt 0.237500000 0.000000000
f 145/145 146/146 147/147 148/148
g shield_part_9_37
usemtl material_1
v 0.151420609 1.057476972 0.127647705
v 0.151420609 0.920705111 0.127647705
v 0.151420609 0.920705111 0.048816828
v 0.151420609 1.057476972 0.048816828
vt 0.000000000 0.000000000
vt 0.000000000 0.128125000
vt 0.087500000 0.128125000
vt 0.087500000 0.000000000
f 149/149 150/150 151/151 152/152
g shield_part_9_38
usemtl material_1
v -0.038068007 1.057476972 0.127647705
v -0.038068007 0.920705111 0.127647705
v 0.151420609 0.920705111 0.127647705
v 0.151420609 1.057476972 0.127647705
vt 0.000000000 0.000000000
vt 0.000000000 0.128125000
vt 0.237500000 0.128125000
vt 0.237500000 0.000000000
f 153/153 154/154 155/155 156/156
g shield_part_9_39
usemtl material_1
v -0.038068007 1.057476972 0.048816828
v -0.038068007 0.920705111 0.048816828
v -0.038068007 0.920705111 0.127647705
v -0.038068007 1.057476972 0.127647705
vt 0.000000000 0.000000000
vt 0.000000000 0.128125000
vt 0.087500000 0.128125000
vt 0.087500000 0.000000000
f 157/157 158/158 159/159 160/160
g shield_part_9_40
usemtl material_1
v -0.038068007 1.057476972 0.048816828
v -0.038068007 1.057476972 0.127647705
v 0.151420609 1.057476972 0.127647705
v 0.151420609 1.057476972 0.048816828
vt 0.000000000 0.000000000
vt 0.000000000 0.087500000
vt 0.237500000 0.087500000
vt 0.237500000 0.000000000
f 161/161 162/162 163/163 164/164
g shield_part_9_41
usemtl material_1
v -0.038068007 0.920705111 0.127647705
v -0.038068007 0.920705111 0.048816828
v 0.151420609 0.920705111 0.048816828
v 0.151420609 0.920705111 0.127647705
vt 0.000000000 0.000000000
vt 0.000000000 0.087500000
vt 0.237500000 0.087500000
vt 0.237500000 0.000000000
f 165/165 166/166 167/167 168/168
g shield_part_10_42
usemtl material_1
v 2.038068007 1.057476972 0.048816828
v 2.038068007 0.920705111 0.048816828
v 1.848579391 0.920705111 0.048816828
v 1.848579391 1.057476972 0.048816828
vt 0.000000000 0.000000000
vt 0.000000000 0.128125000
vt 0.237500000 0.128125000
vt 0.237500000 0.000000000
f 169/169 170/170 171/171 172/172
g shield_part_10_43
usemtl material_1
v 2.038068007 1.057476972 0.127647705
v 2.038068007 0.920705111 0.127647705
v 2.038068007 0.920705111 0.048816828
v 2.038068007 1.057476972 0.048816828
vt 0.000000000 0.000000000
vt 0.000000000 0.128125000
vt 0.087500000 0.128125000
vt 0.087500000 0.000000000
f 173/173 174/174 175/175 176/176
g shield_part_10_44
usemtl material_1
v 1.848579391 1.057476972 0.127647705
v 1.848579391 0.920705111 0.127647705
v 2.038068007 0.920705111 0.127647705
v 2.038068007 1.057476972 0.127647705
vt 0.000000000 0.000000000
vt 0.000000000 0.128125000
vt 0.237500000 0.128125000
vt 0.237500000 0.000000000
f 177/177 178/178 179/179 180/180
g shield_part_10_45
usemtl material_1
v 1.848579391 1.057476972 0.048816828
v 1.848579391 0.920705111 0.048816828
v 1.848579391 0.920705111 0.127647705
v 1.848579391 1.057476972 0.127647705
vt 0.000000000 0.000000000
vt 0.000000000 0.128125000
vt 0.087500000 0.128125000
vt 0.087500000 0.000000000
f 181/181 182/182 183/183 184/184
g shield_part_10_46
usemtl material_1
v 1.848579391 1.057476972 0.048816828
v 1.848579391 1.057476972 0.127647705
v 2.038068007 1.057476972 0.127647705
v 2.038068007 1.057476972 0.048816828
vt 0.000000000 0.000000000
vt 0.000000000 0.087500000
vt 0.237500000 0.087500000
vt 0.237500000 0.000000000
f 185/185 186/186 187/187 188/188
g shield_part_10_47
usemtl material_1
v 1.848579391 0.920705111 0.127647705
v 1.848579391 0.920705111 0.048816828
v 2.038068007 0.920705111 0.048816828
v 2.038068007 0.920705111 0.127647705
vt 0.000000000 0.000000000
vt 0.000000000 0.087500000
vt 0.237500000 0.087500000
vt 0.237500000 0.000000000
f 189/189 190/190 191/191 192/192
g shield_part_12_48
usemtl material_1
v 0.110227528 1.070820251 0.127647705
v 0.110227528 0.924041580 0.127647705
v -0.038068007 0.924041580 0.127647705
v -0.038068007 1.070820251 0.127647705
vt 0.000000000 0.000000000
vt 0.000000000 0.137500000
vt 0.112500000 0.137500000
vt 0.112500000 0.000000000
f 193/193 194/194 195/195 196/196
g shield_part_12_49
usemtl material_1
v 0.110227528 1.070820251 0.451269364
v 0.110227528 0.924041580 0.451269364
v 0.110227528 0.924041580 0.127647705
v 0.110227528 1.070820251 0.127647705
vt 0.000000000 0.000000000
vt 0.000000000 0.137500000
vt 0.268750000 0.137500000
vt 0.268750000 0.000000000
f 197/197 198/198 199/199 200/200
g shield_part_12_50
usemtl material_1
v -0.038068007 1.070820251 0.451269364
v -0.038068007 0.924041580 0.451269364
v 0.110227528 0.924041580 0.451269364
v 0.110227528 1.070820251 0.451269364
vt 0.000000000 0.000000000
vt 0.000000000 0.137500000
vt 0.112500000 0.137500000
vt 0.112500000 0.000000000
f 201/201 202/202 203/203 204/204
g shield_part_12_51
usemtl material_1
v -0.038068007 1.070820251 0.127647705
v -0.038068007 0.924041580 0.127647705
v -0.038068007 0.924041580 0.451269364
v -0.038068007 1.070820251 0.451269364
vt 0.000000000 0.000000000
vt 0.000000000 0.137500000
vt 0.268750000 0.137500000
vt 0.268750000 0.000000000
f 205/205 206/206 207/207 208/208
g shield_part_12_52
usemtl material_1
v -0.038068007 1.070820251 0.127647705
v -0.038068007 1.070820251 0.451269364
v 0.110227528 1.070820251 0.451269364
v 0.110227528 1.070820251 0.127647705
vt 0.000000000 0.000000000
vt 0.000000000 0.268750000
vt 0.112500000 0.268750000
vt 0.112500000 0.000000000
f 209/209 210/210 211/211 212/212
g shield_part_12_53
usemtl material_1
v -0.038068007 0.924041580 0.451269364
v -0.038068007 0.924041580 0.127647705
v 0.110227528 0.924041580 0.127647705
v 0.110227528 0.924041580 0.451269364
vt 0.000000000 0.000000000
vt 0.000000000 0.268750000
vt 0.112500000 0.268750000
vt 0.112500000 0.000000000
f 213/213 214/214 215/215 216/216
g shield_part_13_54
usemtl material_1
v 0.093750000 1.107514919 0.451269364
v 0.093750000 0.947392319 0.451269364
v -0.087499852 0.947392319 0.451269364
v -0.087499852 1.107514919 0.451269364
vt 0.000000000 0.000000000
vt 0.000000000 0.150000000
vt 0.137500000 0.150000000
vt 0.137500000 0.000000000
f 217/217 218/218 219/219 220/220
g shield_part_13_55
usemtl material_1
v 0.093750000 1.107514919 0.733401812
v 0.093750000 0.947392319 0.733401812
v 0.093750000 0.947392319 0.451269364
v 0.093750000 1.107514919 0.451269364
vt 0.000000000 0.000000000
vt 0.000000000 0.150000000
vt 0.237500000 0.150000000
vt 0.237500000 0.000000000
f 221/221 222/222 223/223 224/224
g shield_part_13_56
usemtl material_1
v -0.087499852 1.107514919 0.733401812
v -0.087499852 0.947392319 0.733401812
v 0.093750000 0.947392319 0.733401812
v 0.093750000 1.107514919 0.733401812
vt 0.000000000 0.000000000
vt 0.000000000 0.150000000
vt 0.137500000 0.150000000
vt 0.137500000 0.000000000
f 225/225 226/226 227/227 228/228
g shield_part_13_57
usemtl material_1
v -0.087499852 1.107514919 0.451269364
v -0.087499852 0.947392319 0.451269364
v -0.087499852 0.947392319 0.733401812
v -0.087499852 1.107514919 0.733401812
vt 0.000000000 0.000000000
vt 0.000000000 0.150000000
vt 0.237500000 0.150000000
vt 0.237500000 0.000000000
f 229/229 230/230 231/231 232/232
g shield_part_13_58
usemtl material_1
v -0.087499852 1.107514919 0.451269364
v -0.087499852 1.107514919 0.733401812
v 0.093750000 1.107514919 0.733401812
v 0.093750000 1.107514919 0.451269364
vt 0.000000000 0.000000000
vt 0.000000000 0.237500000
vt 0.137500000 0.237500000
vt 0.137500000 0.000000000
f 233/233 234/234 235/235 236/236
g shield_part_13_59
usemtl material_1
v -0.087499852 0.947392319 0.733401812
v -0.087499852 0.947392319 0.451269364
v 0.093750000 0.947392319 0.451269364
v 0.093750000 0.947392319 0.733401812
vt 0.000000000 0.000000000
vt 0.000000000 0.237500000
vt 0.137500000 0.237500000
vt 0.137500000 0.000000000
f 237/237 238/238 239/239 240/240
g shield_part_14_60
usemtl material_1
v 0.093750000 1.160889335 0.733401812
v 0.093750000 0.974079527 0.733401812
v -0.136931697 0.974079527 0.733401812
v -0.136931697 1.160889335 0.733401812
vt 0.000000000 0.000000000
vt 0.000000000 0.175000000
vt 0.175000000 0.175000000
vt 0.175000000 0.000000000
f 241/241 242/242 243/243 244/244
g shield_part_14_61
usemtl material_1
v 0.093750000 1.160889335 1.115108977
v 0.093750000 0.974079527 1.115108977
v 0.093750000 0.974079527 0.733401812
v 0.093750000 1.160889335 0.733401812
vt 0.000000000 0.000000000
vt 0.000000000 0.175000000
vt 0.287500000 0.175000000
vt 0.287500000 0.000000000
f 245/245 246/246 247/247 248/248
g shield_part_14_62
usemtl material_1
v -0.136931697 1.160889335 1.115108977
v -0.136931697 0.974079527 1.115108977
v 0.093750000 0.974079527 1.115108977
v 0.093750000 1.160889335 1.115108977
vt 0.000000000 0.000000000
vt 0.000000000 0.175000000
vt 0.175000000 0.175000000
vt 0.175000000 0.000000000
f 249/249 250/250 251/251 252/252
g shield_part_14_63
usemtl material_1
v -0.136931697 1.160889335 0.733401812
v -0.136931697 0.974079527 0.733401812
v -0.136931697 0.974079527 1.115108977
v -0.136931697 1.160889335 1.115108977
vt 0.000000000 0.000000000
vt 0.000000000 0.175000000
vt 0.287500000 0.175000000
vt 0.287500000 0.000000000
f 253/253 254/254 255/255 256/256
g shield_part_14_64
usemtl material_1
v -0.136931697 1.160889335 0.733401812
v -0.136931697 1.160889335 1.115108977
v 0.093750000 1.160889335 1.115108977
v 0.093750000 1.160889335 0.733401812
vt 0.000000000 0.000000000
vt 0.000000000 0.287500000
vt 0.175000000 0.287500000
vt 0.175000000 0.000000000
f 257/257 258/258 259/259 260/260
g shield_part_14_65
usemtl material_1
v -0.136931697 0.974079527 1.115108977
v -0.136931697 0.974079527 0.733401812
v 0.093750000 0.974079527 0.733401812
v 0.093750000 0.974079527 1.115108977
vt 0.000000000 0.000000000
vt 0.000000000 0.287500000
vt 0.175000000 0.287500000
vt 0.175000000 0.000000000
f 261/261 262/262 263/263 264/264
g shield_part_15_66
usemtl material_1
v 2.038068007 1.070820251 0.127647705
v 2.038068007 0.924041580 0.127647705
v 1.889772472 0.924041580 0.127647705
v 1.889772472 1.070820251 0.127647705
vt 0.000000000 0.000000000
vt 0.000000000 0.137500000
vt 0.112500000 0.137500000
vt 0.112500000 0.000000000
f 265/265 266/266 267/267 268/268
g shield_part_15_67
usemtl material_1
v 2.038068007 1.070820251 0.451269364
v 2.038068007 0.924041580 0.451269364
v 2.038068007 0.924041580 0.127647705
v 2.038068007 1.070820251 0.127647705
vt 0.000000000 0.000000000
vt 0.000000000 0.137500000
vt 0.268750000 0.137500000
vt 0.268750000 0.000000000
f 269/269 270/270 271/271 272/272
g shield_part_15_68
usemtl material_1
v 1.889772472 1.070820251 0.451269364
v 1.889772472 0.924041580 0.451269364
v 2.038068007 0.924041580 0.451269364
v 2.038068007 1.070820251 0.451269364
vt 0.000000000 0.000000000
vt 0.000000000 0.137500000
vt 0.112500000 0.137500000
vt 0.112500000 0.000000000
f 273/273 274/274 275/275 276/276
g shield_part_15_69
usemtl material_1
v 1.889772472 1.070820251 0.127647705
v 1.889772472 0.924041580 0.127647705
v 1.889772472 0.924041580 0.451269364
v 1.889772472 1.070820251 0.451269364
vt 0.000000000 0.000000000
vt 0.000000000 0.137500000
vt 0.268750000 0.137500000
vt 0.268750000 0.000000000
f 277/277 278/278 279/279 280/280
g shield_part_15_70
usemtl material_1
v 1.889772472 1.070820251 0.127647705
v 1.889772472 1.070820251 0.451269364
v 2.038068007 1.070820251 0.451269364
v 2.038068007 1.070820251 0.127647705
vt 0.000000000 0.000000000
vt 0.000000000 0.268750000
vt 0.112500000 0.268750000
vt 0.112500000 0.000000000
f 281/281 282/282 283/283 284/284
g shield_part_15_71
usemtl material_1
v 1.889772472 0.924041580 0.451269364
v 1.889772472 0.924041580 0.127647705
v 2.038068007 0.924041580 0.127647705
v 2.038068007 0.924041580 0.451269364
vt 0.000000000 0.000000000
vt 0.000000000 0.268750000
vt 0.112500000 0.268750000
vt 0.112500000 0.000000000
f 285/285 286/286 287/287 288/288
g shield_part_16_72
usemtl material_1
v 2.087499852 1.107514919 0.451269364
v 2.087499852 0.947392319 0.451269364
v 1.906250000 0.947392319 0.451269364
v 1.906250000 1.107514919 0.451269364
vt 0.000000000 0.000000000
vt 0.000000000 0.150000000
vt 0.137500000 0.150000000
vt 0.137500000 0.000000000
f 289/289 290/290 291/291 292/292
g shield_part_16_73
usemtl material_1
v 2.087499852 1.107514919 0.733401812
v 2.087499852 0.947392319 0.733401812
v 2.087499852 0.947392319 0.451269364
v 2.087499852 1.107514919 0.451269364
vt 0.000000000 0.000000000
vt 0.000000000 0.150000000
vt 0.237500000 0.150000000
vt 0.237500000 0.000000000
f 293/293 294/294 295/295 296/296
g shield_part_16_74
usemtl material_1
v 1.906250000 1.107514919 0.733401812
v 1.906250000 0.947392319 0.733401812
v 2.087499852 0.947392319 0.733401812
v 2.087499852 1.107514919 0.733401812
vt 0.000000000 0.000000000
vt 0.000000000 0.150000000
vt 0.137500000 0.150000000
vt 0.137500000 0.000000000
f 297/297 298/298 299/299 300/300
g shield_part_16_75
usemtl material_1
v 1.906250000 1.107514919 0.451269364
v 1.906250000 0.947392319 0.451269364
v 1.906250000 0.947392319 0.733401812
v 1.906250000 1.107514919 0.733401812
vt 0.000000000 0.000000000
vt 0.000000000 0.150000000
vt 0.237500000 0.150000000
vt 0.237500000 0.000000000
f 301/301 302/302 303/303 304/304
g shield_part_16_76
usemtl material_1
v 1.906250000 1.107514919 0.451269364
v 1.906250000 1.107514919 0.733401812
v 2.087499852 1.107514919 0.733401812
v 2.087499852 1.107514919 0.451269364
vt 0.000000000 0.000000000
vt 0.000000000 0.237500000
vt 0.137500000 0.237500000
vt 0.137500000 0.000000000
f 305/305 306/306 307/307 308/308
g shield_part_16_77
usemtl material_1
v 1.906250000 0.947392319 0.733401812
v 1.906250000 0.947392319 0.451269364
v 2.087499852 0.947392319 0.451269364
v 2.087499852 0.947392319 0.733401812
vt 0.000000000 0.000000000
vt 0.000000000 0.237500000
vt 0.137500000 0.237500000
vt 0.137500000 0.000000000
f 309/309 310/310 311/311 312/312
g shield_part_17_78
usemtl material_1
v 2.136931697 1.160889335 0.733401812
v 2.136931697 0.974079527 0.733401812
v 1.906250000 0.974079527 0.733401812
v 1.906250000 1.160889335 0.733401812
vt 0.000000000 0.000000000
vt 0.000000000 0.175000000
vt 0.175000000 0.175000000
vt 0.175000000 0.000000000
f 313/313 314/314 315/315 316/316
g shield_part_17_79
usemtl material_1
v 2.136931697 1.160889335 1.115108977
v 2.136931697 0.974079527 1.115108977
v 2.136931697 0.974079527 0.733401812
v 2.136931697 1.160889335 0.733401812
vt 0.000000000 0.000000000
vt 0.000000000 0.175000000
vt 0.287500000 0.175000000
vt 0.287500000 0.000000000
f 317/317 318/318 319/319 320/320
g shield_part_17_80
usemtl material_1
v 1.906250000 1.160889335 1.115108977
v 1.906250000 0.974079527 1.115108977
v 2.136931697 0.974079527 1.115108977
v 2.136931697 1.160889335 1.115108977
vt 0.000000000 0.000000000
vt 0.000000000 0.175000000
vt 0.175000000 0.175000000
vt 0.175000000 0.000000000
f 321/321 322/322 323/323 324/324
g shield_part_17_81
usemtl material_1
v 1.906250000 1.160889335 0.733401812
v 1.906250000 0.974079527 0.733401812
v 1.906250000 0.974079527 1.115108977
v 1.906250000 1.160889335 1.115108977
vt 0.000000000 0.000000000
vt 0.000000000 0.175000000
vt 0.287500000 0.175000000
vt 0.287500000 0.000000000
f 325/325 326/326 327/327 328/328
g shield_part_17_82
usemtl material_1
v 1.906250000 1.160889335 0.733401812
v 1.906250000 1.160889335 1.115108977
v 2.136931697 1.160889335 1.115108977
v 2.136931697 1.160889335 0.733401812
vt 0.000000000 0.000000000
vt 0.000000000 0.287500000
vt 0.175000000 0.287500000
vt 0.175000000 0.000000000
f 329/329 330/330 331/331 332/332
g shield_part_17_83
usemtl material_1
v 1.906250000 0.974079527 1.115108977
v 1.906250000 0.974079527 0.733401812
v 2.136931697 0.974079527 0.733401812
v 2.136931697 0.974079527 1.115108977
vt 0.000000000 0.000000000
vt 0.000000000 0.287500000
vt 0.175000000 0.287500000
vt 0.175000000 0.000000000
f 333/333 334/334 335/335 336/336
g shield_part_18_84
usemtl material_3
v 2.050426153 1.237615140 0.974043519
v 2.050426153 0.795634600 0.974043519
v -0.050426153 0.795634600 0.974043519
v -0.050426153 1.237615140 0.974043519
vt 0.000000000 0.000000000
vt 0.000000000 0.159375000
vt 1.000000000 0.159375000
vt 1.000000000 0.000000000
f 337/337 338/338 339/339 340/340
g shield_part_18_85
usemtl material_3
v 2.050426153 1.237615140 1.185642472
v 2.050426153 0.795634600 1.185642472
v 2.050426153 0.795634600 0.974043519
v 2.050426153 1.237615140 0.974043519
vt 0.000000000 0.000000000
vt 0.000000000 0.159375000
vt 0.159375000 0.159375000
vt 0.159375000 0.000000000
f 341/341 342/342 343/343 344/344
g shield_part_18_86
usemtl material_3
v -0.050426153 1.237615140 1.185642472
v -0.050426153 0.795634600 1.185642472
v 2.050426153 0.795634600 1.185642472
v 2.050426153 1.237615140 1.185642472
vt 0.000000000 0.000000000
vt 0.000000000 0.159375000
vt 1.000000000 0.159375000
vt 1.000000000 0.000000000
f 345/345 346/346 347/347 348/348
g shield_part_18_87
usemtl material_3
v -0.050426153 1.237615140 0.974043519
v -0.050426153 0.795634600 0.974043519
v -0.050426153 0.795634600 1.185642472
v -0.050426153 1.237615140 1.185642472
vt 0.000000000 0.000000000
vt 0.000000000 0.159375000
vt 0.159375000 0.159375000
vt 0.159375000 0.000000000
f 349/349 350/350 351/351 352/352
g shield_part_18_88
usemtl material_3
v -0.050426153 1.237615140 0.974043519
v -0.050426153 1.237615140 1.185642472
v 2.050426153 1.237615140 1.185642472
v 2.050426153 1.237615140 0.974043519
vt 0.000000000 0.000000000
vt 0.000000000 0.159375000
vt 1.000000000 0.159375000
vt 1.000000000 0.000000000
f 353/353 354/354 355/355 356/356
g shield_part_18_89
usemtl material_3
v -0.050426153 0.795634600 1.185642472
v -0.050426153 0.795634600 0.974043519
v 2.050426153 0.795634600 0.974043519
v 2.050426153 0.795634600 1.185642472
vt 0.000000000 0.000000000
vt 0.000000000 0.159375000
vt 1.000000000 0.159375000
vt 1.000000000 0.000000000
f 357/357 358/358 359/359 360/360
g shield_part_25_90
usemtl material_2
v 1.984516780 1.267638168 0.945000000
v 1.984516780 1.194248183 0.945000000
v 0.015483220 1.194248183 0.945000000
v 0.015483220 1.267638168 0.945000000
vt 0.000000000 0.000000000
vt 0.000000000 0.068750000
vt 1.000000000 0.068750000
vt 1.000000000 0.000000000
f 361/361 362/362 363/363 364/364
g shield_part_25_91
usemtl material_1
v 1.984516780 1.267638168 1.005575411
v 1.984516780 1.194248183 1.005575411
v 1.984516780 1.194248183 0.945000000
v 1.984516780 1.267638168 0.945000000
vt 0.000000000 0.000000000
vt 0.000000000 0.068750000
vt 0.045625000 0.068750000
vt 0.045625000 0.000000000
f 365/365 366/366 367/367 368/368
g shield_part_25_92
usemtl material_2
v 0.015483220 1.267638168 1.005575411
v 0.015483220 1.194248183 1.005575411
v 1.984516780 1.194248183 1.005575411
v 1.984516780 1.267638168 1.005575411
vt 0.000000000 0.000000000
vt 0.000000000 0.068750000
vt 1.000000000 0.068750000
vt 1.000000000 0.000000000
f 369/369 370/370 371/371 372/372
g shield_part_25_93
usemtl material_1
v 0.015483220 1.267638168 0.945000000
v 0.015483220 1.194248183 0.945000000
v 0.015483220 1.194248183 1.005575411
v 0.015483220 1.267638168 1.005575411
vt 0.000000000 0.000000000
vt 0.000000000 0.068750000
vt 0.045625000 0.068750000
vt 0.045625000 0.000000000
f 373/373 374/374 375/375 376/376
g shield_part_25_94
usemtl material_2
v 0.015483220 1.267638168 0.945000000
v 0.015483220 1.267638168 1.005575411
v 1.984516780 1.267638168 1.005575411
v 1.984516780 1.267638168 0.945000000
vt 0.000000000 0.000000000
vt 0.000000000 0.045625000
vt 1.000000000 0.045625000
vt 1.000000000 0.000000000
f 377/377 378/378 379/379 380/380
g shield_part_25_95
usemtl material_2
v 0.015483220 1.194248183 1.005575411
v 0.015483220 1.194248183 0.945000000
v 1.984516780 1.194248183 0.945000000
v 1.984516780 1.194248183 1.005575411
vt 0.000000000 0.000000000
vt 0.000000000 0.045625000
vt 1.000000000 0.045625000
vt 1.000000000 0.000000000
f 381/381 382/382 383/383 384/384
g shield_part_26_96
usemtl material_3
v 2.071022324 1.298995264 0.969894444
v 2.071022324 1.266970485 0.969894444
v -0.071022324 1.266970485 0.969894444
v -0.071022324 1.298995264 0.969894444
vt 0.000000000 0.000000000
vt 0.000000000 0.030000000
vt 1.000000000 0.030000000
vt 1.000000000 0.000000000
f 385/385 386/386 387/387 388/388
g shield_part_26_97
usemtl material_3
v 2.071022324 1.298995264 1.094364372
v 2.071022324 1.266970485 1.094364372
v 2.071022324 1.266970485 0.969894444
v 2.071022324 1.298995264 0.969894444
vt 0.000000000 0.000000000
vt 0.000000000 0.030000000
vt 0.093750000 0.030000000
vt 0.093750000 0.000000000
f 389/389 390/390 391/391 392/392
g shield_part_26_98
usemtl material_3
v -0.071022324 1.298995264 1.094364372
v -0.071022324 1.266970485 1.094364372
v 2.071022324 1.266970485 1.094364372
v 2.071022324 1.298995264 1.094364372
vt 0.000000000 0.000000000
vt 0.000000000 0.030000000
vt 1.000000000 0.030000000
vt 1.000000000 0.000000000
f 393/393 394/394 395/395 396/396
g shield_part_26_99
usemtl material_3
v -0.071022324 1.298995264 0.969894444
v -0.071022324 1.266970485 0.969894444
v -0.071022324 1.266970485 1.094364372
v -0.071022324 1.298995264 1.094364372
vt 0.000000000 0.000000000
vt 0.000000000 0.030000000
vt 0.093750000 0.030000000
vt 0.093750000 0.000000000
f 397/397 398/398 399/399 400/400
g shield_part_26_100
usemtl material_3
v -0.071022324 1.298995264 0.969894444
v -0.071022324 1.298995264 1.094364372
v 2.071022324 1.298995264 1.094364372
v 2.071022324 1.298995264 0.969894444
vt 0.000000000 0.000000000
vt 0.000000000 0.093750000
vt 1.000000000 0.093750000
vt 1.000000000 0.000000000
f 401/401 402/402 403/403 404/404
g shield_part_26_101
usemtl material_3
v -0.071022324 1.266970485 1.094364372
v -0.071022324 1.266970485 0.969894444
v 2.071022324 1.266970485 0.969894444
v 2.071022324 1.266970485 1.094364372
vt 0.000000000 0.000000000
vt 0.000000000 0.093750000
vt 1.000000000 0.093750000
vt 1.000000000 0.000000000
f 405/405 406/406 407/407 408/408
g shield_part_27_102
usemtl material_1
v 0.015483220 1.280981448 0.945000000
v 0.015483220 1.174233264 0.945000000
v -0.091619234 1.174233264 0.945000000
v -0.091619234 1.280981448 0.945000000
vt 0.000000000 0.000000000
vt 0.000000000 0.100000000
vt 0.081250000 0.100000000
vt 0.081250000 0.000000000
f 409/409 410/410 411/411 412/412
g shield_part_27_103
usemtl material_1
v 0.015483220 1.280981448 1.077768076
v 0.015483220 1.174233264 1.077768076
v 0.015483220 1.174233264 0.945000000
v 0.015483220 1.280981448 0.945000000
vt 0.000000000 0.000000000
vt 0.000000000 0.100000000
vt 0.100000000 0.100000000
vt 0.100000000 0.000000000
f 413/413 414/414 415/415 416/416
g shield_part_27_104
usemtl material_1
v -0.091619234 1.280981448 1.077768076
v -0.091619234 1.174233264 1.077768076
v 0.015483220 1.174233264 1.077768076
v 0.015483220 1.280981448 1.077768076
vt 0.000000000 0.000000000
vt 0.000000000 0.100000000
vt 0.081250000 0.100000000
vt 0.081250000 0.000000000
f 417/417 418/418 419/419 420/420
g shield_part_27_105
usemtl material_1
v -0.091619234 1.280981448 0.945000000
v -0.091619234 1.174233264 0.945000000
v -0.091619234 1.174233264 1.077768076
v -0.091619234 1.280981448 1.077768076
vt 0.000000000 0.000000000
vt 0.000000000 0.100000000
vt 0.100000000 0.100000000
vt 0.100000000 0.000000000
f 421/421 422/422 423/423 424/424
g shield_part_27_106
usemtl material_1
v -0.091619234 1.280981448 0.945000000
v -0.091619234 1.280981448 1.077768076
v 0.015483220 1.280981448 1.077768076
v 0.015483220 1.280981448 0.945000000
vt 0.000000000 0.000000000
vt 0.000000000 0.100000000
vt 0.081250000 0.100000000
vt 0.081250000 0.000000000
f 425/425 426/426 427/427 428/428
g shield_part_27_107
usemtl material_1
v -0.091619234 1.174233264 1.077768076
v -0.091619234 1.174233264 0.945000000
v 0.015483220 1.174233264 0.945000000
v 0.015483220 1.174233264 1.077768076
vt 0.000000000 0.000000000
vt 0.000000000 0.100000000
vt 0.081250000 0.100000000
vt 0.081250000 0.000000000
f 429/429 430/430 431/431 432/432
g shield_part_28_108
usemtl material_1
v 2.091619234 1.280981448 0.945000000
v 2.091619234 1.174233264 0.945000000
v 1.984516780 1.174233264 0.945000000
v 1.984516780 1.280981448 0.945000000
vt 0.000000000 0.000000000
vt 0.000000000 0.100000000
vt 0.081250000 0.100000000
vt 0.081250000 0.000000000
f 433/433 434/434 435/435 436/436
g shield_part_28_109
usemtl material_1
v 2.091619234 1.280981448 1.077768076
v 2.091619234 1.174233264 1.077768076
v 2.091619234 1.174233264 0.945000000
v 2.091619234 1.280981448 0.945000000
vt 0.000000000 0.000000000
vt 0.000000000 0.100000000
vt 0.100000000 0.100000000
vt 0.100000000 0.000000000
f 437/437 438/438 439/439 440/440
g shield_part_28_110
usemtl material_1
v 1.984516780 1.280981448 1.077768076
v 1.984516780 1.174233264 1.077768076
v 2.091619234 1.174233264 1.077768076
v 2.091619234 1.280981448 1.077768076
vt 0.000000000 0.000000000
vt 0.000000000 0.100000000
vt 0.081250000 0.100000000
vt 0.081250000 0.000000000
f 441/441 442/442 443/443 444/444
g shield_part_28_111
usemtl material_1
v 1.984516780 1.280981448 0.945000000
v 1.984516780 1.174233264 0.945000000
v 1.984516780 1.174233264 1.077768076
v 1.984516780 1.280981448 1.077768076
vt 0.000000000 0.000000000
vt 0.000000000 0.100000000
vt 0.100000000 0.100000000
vt 0.100000000 0.000000000
f 445/445 446/446 447/447 448/448
g shield_part_28_112
usemtl material_1
v 1.984516780 1.280981448 0.945000000
v 1.984516780 1.280981448 1.077768076
v 2.091619234 1.280981448 1.077768076
v 2.091619234 1.280981448 0.945000000
vt 0.000000000 0.000000000
vt 0.000000000 0.100000000
vt 0.081250000 0.100000000
vt 0.081250000 0.000000000
f 449/449 450/450 451/451 452/452
g shield_part_28_113
usemtl material_1
v 1.984516780 1.174233264 1.077768076
v 1.984516780 1.174233264 0.945000000
v 2.091619234 1.174233264 0.945000000
v 2.091619234 1.174233264 1.077768076
vt 0.000000000 0.000000000
vt 0.000000000 0.100000000
vt 0.081250000 0.100000000
vt 0.081250000 0.000000000
f 453/453 454/454 455/455 456/456
g shield_part_85_114
usemtl material_1
v -0.131259881 0.958009008 0.838630255
v -0.131259881 0.795634600 0.838630255
v -0.146776836 0.795634600 0.838630255
v -0.146776836 0.958009008 0.838630255
vt 0.000000000 0.000000000
vt 0.000000000 0.156250000
vt 0.013125000 0.156250000
vt 0.013125000 0.000000000
f 457/457 458/458 459/459 460/460
g shield_part_85_115
usemtl material_1
v -0.131259881 0.958009008 1.110186542
v -0.131259881 0.795634600 1.110186542
v -0.131259881 0.795634600 0.838630255
v -0.131259881 0.958009008 0.838630255
vt 0.000000000 0.000000000
vt 0.000000000 0.156250000
vt 0.221875000 0.156250000
vt 0.221875000 0.000000000
f 461/461 462/462 463/463 464/464
g shield_part_85_116
usemtl material_1
v -0.146776836 0.958009008 1.110186542
v -0.146776836 0.795634600 1.110186542
v -0.131259881 0.795634600 1.110186542
v -0.131259881 0.958009008 1.110186542
vt 0.000000000 0.000000000
vt 0.000000000 0.156250000
vt 0.013125000 0.156250000
vt 0.013125000 0.000000000
f 465/465 466/466 467/467 468/468
g shield_part_85_117
usemtl material_1
v -0.146776836 0.958009008 0.838630255
v -0.146776836 0.795634600 0.838630255
v -0.146776836 0.795634600 1.110186542
v -0.146776836 0.958009008 1.110186542
vt 0.000000000 0.000000000
vt 0.000000000 0.156250000
vt 0.221875000 0.156250000
vt 0.221875000 0.000000000
f 469/469 470/470 471/471 472/472
g shield_part_85_118
usemtl material_1
v -0.146776836 0.958009008 0.838630255
v -0.146776836 0.958009008 1.110186542
v -0.131259881 0.958009008 1.110186542
v -0.131259881 0.958009008 0.838630255
vt 0.000000000 0.000000000
vt 0.000000000 0.221875000
vt 0.013125000 0.221875000
vt 0.013125000 0.000000000
f 473/473 474/474 475/475 476/476
g shield_part_85_119
usemtl material_1
v -0.146776836 0.795634600 1.110186542
v -0.146776836 0.795634600 0.838630255
v -0.131259881 0.795634600 0.838630255
v -0.131259881 0.795634600 1.110186542
vt 0.000000000 0.000000000
vt 0.000000000 0.221875000
vt 0.013125000 0.221875000
vt 0.013125000 0.000000000
f 477/477 478/478 479/479 480/480
g shield_part_86_120
usemtl material_1
v 2.146776836 0.958009008 0.838630255
v 2.146776836 0.795634600 0.838630255
v 2.131259881 0.795634600 0.838630255
v 2.131259881 0.958009008 0.838630255
vt 0.000000000 0.000000000
vt 0.000000000 0.156250000
vt 0.013125000 0.156250000
vt 0.013125000 0.000000000
f 481/481 482/482 483/483 484/484
g shield_part_86_121
usemtl material_1
v 2.146776836 0.958009008 1.110186542
v 2.146776836 0.795634600 1.110186542
v 2.146776836 0.795634600 0.838630255
v 2.146776836 0.958009008 0.838630255
vt 0.000000000 0.000000000
vt 0.000000000 0.156250000
vt 0.221875000 0.156250000
vt 0.221875000 0.000000000
f 485/485 486/486 487/487 488/488
g shield_part_86_122
usemtl material_1
v 2.131259881 0.958009008 1.110186542
v 2.131259881 0.795634600 1.110186542
v 2.146776836 0.795634600 1.110186542
v 2.146776836 0.958009008 1.110186542
vt 0.000000000 0.000000000
vt 0.000000000 0.156250000
vt 0.013125000 0.156250000
vt 0.013125000 0.000000000
f 489/489 490/490 491/491 492/492
g shield_part_86_123
usemtl material_1
v 2.131259881 0.958009008 0.838630255
v 2.131259881 0.795634600 0.838630255
v 2.131259881 0.795634600 1.110186542
v 2.131259881 0.958009008 1.110186542
vt 0.000000000 0.000000000
vt 0.000000000 0.156250000
vt 0.221875000 0.156250000
vt 0.221875000 0.000000000
f 493/493 494/494 495/495 496/496
g shield_part_86_124
usemtl material_1
v 2.131259881 0.958009008 0.838630255
v 2.131259881 0.958009008 1.110186542
v 2.146776836 0.958009008 1.110186542
v 2.146776836 0.958009008 0.838630255
vt 0.000000000 0.000000000
vt 0.000000000 0.221875000
vt 0.013125000 0.221875000
vt 0.013125000 0.000000000
f 497/497 498/498 499/499 500/500
g shield_part_86_125
usemtl material_1
v 2.131259881 0.795634600 1.110186542
v 2.131259881 0.795634600 0.838630255
v 2.146776836 0.795634600 0.838630255
v 2.146776836 0.795634600 1.110186542
vt 0.000000000 0.000000000
vt 0.000000000 0.221875000
vt 0.013125000 0.221875000
vt 0.013125000 0.000000000
f 501/501 502/502 503/503 504/504
g solid_leg_126
usemtl material_3
v 0.225930684 0.038969858 0.302537903
v 0.185351277 0.038969858 0.431830615
v 0.013932376 0.038969858 0.374170027
v 0.054511783 0.038969858 0.244877315
vt 0.000000000 0.831250000
vt 0.118750000 0.831250000
vt 0.118750000 0.000000000
vt 0.000000000 0.000000000
f 505/505 506/506 507/507 508/508
g solid_leg_127
usemtl material_3
v -0.150804363 0.873800507 1.061500437
v -0.006977043 0.873800507 1.109879975
v 0.033602365 0.954624543 0.980587263
v -0.110224955 0.954624543 0.932207725
vt 0.000000000 0.831250000
vt 0.118750000 0.831250000
vt 0.118750000 0.000000000
vt 0.000000000 0.000000000
f 509/509 510/510 511/511 512/512
g solid_leg_128
usemtl material_3
v 0.013932376 0.038969858 0.374170027
v -0.150804363 0.873800507 1.061500437
v -0.110224955 0.954624543 0.932207725
v 0.054511783 0.038969858 0.244877315
vt 0.000000000 0.831250000
vt 0.118750000 0.831250000
vt 0.118750000 0.000000000
vt 0.000000000 0.000000000
f 513/513 514/514 515/515 516/516
g solid_leg_129
usemtl material_3
v 0.033602365 0.954624543 0.980587263
v -0.006977043 0.873800507 1.109879975
v 0.185351277 0.038969858 0.431830615
v 0.225930684 0.038969858 0.302537903
vt 0.000000000 0.831250000
vt 0.118750000 0.831250000
vt 0.118750000 0.000000000
vt 0.000000000 0.000000000
f 517/517 518/518 519/519 520/520
g solid_leg_130
usemtl material_3
v -0.110224955 0.954624543 0.932207725
v 0.033602365 0.954624543 0.980587263
v 0.225930684 0.038969858 0.302537903
v 0.054511783 0.038969858 0.244877315
vt 0.000000000 0.831250000
vt 0.118750000 0.831250000
vt 0.118750000 0.000000000
vt 0.000000000 0.000000000
f 521/521 522/522 523/523 524/524
g solid_leg_131
usemtl material_3
v 0.185351277 0.038969858 0.431830615
v -0.006977043 0.873800507 1.109879975
v -0.150804363 0.873800507 1.061500437
v 0.013932376 0.038969858 0.374170027
vt 0.000000000 0.831250000
vt 0.118750000 0.831250000
vt 0.118750000 0.000000000
vt 0.000000000 0.000000000
f 525/525 526/526 527/527 528/528
g solid_leg_132
usemtl material_3
v 1.945488217 0.038969858 0.244877315
v 1.986067624 0.038969858 0.374170027
v 1.814648712 0.038969858 0.431830615
v 1.774069304 0.038969858 0.302537903
vt 0.000000000 0.831250000
vt 0.118750000 0.831250000
vt 0.118750000 0.000000000
vt 0.000000000 0.000000000
f 529/529 530/530 531/531 532/532
g solid_leg_133
usemtl material_3
v 2.006977043 0.873800507 1.109879975
v 2.150804363 0.873800507 1.061500437
v 2.110224955 0.954624543 0.932207725
v 1.966397635 0.954624543 0.980587263
vt 0.000000000 0.831250000
vt 0.118750000 0.831250000
vt 0.118750000 0.000000000
vt 0.000000000 0.000000000
f 533/533 534/534 535/535 536/536
g solid_leg_134
usemtl material_3
v 1.814648712 0.038969858 0.431830615
v 2.006977043 0.873800507 1.109879975
v 1.966397635 0.954624543 0.980587263
v 1.774069304 0.038969858 0.302537903
vt 0.000000000 0.831250000
vt 0.118750000 0.831250000
vt 0.118750000 0.000000000
vt 0.000000000 0.000000000
f 537/537 538/538 539/539 540/540
g solid_leg_135
usemtl material_3
v 2.110224955 0.954624543 0.932207725
v 2.150804363 0.873800507 1.061500437
v 1.986067624 0.038969858 0.374170027
v 1.945488217 0.038969858 0.244877315
vt 0.000000000 0.831250000
vt 0.118750000 0.831250000
vt 0.118750000 0.000000000
vt 0.000000000 0.000000000
f 541/541 542/542 543/543 544/544
g solid_leg_136
usemtl material_3
v 1.966397635 0.954624543 0.980587263
v 2.110224955 0.954624543 0.932207725
v 1.945488217 0.038969858 0.244877315
v 1.774069304 0.038969858 0.302537903
vt 0.000000000 0.831250000
vt 0.118750000 0.831250000
vt 0.118750000 0.000000000
vt 0.000000000 0.000000000
f 545/545 546/546 547/547 548/548
g solid_leg_137
usemtl material_3
v 1.986067624 0.038969858 0.374170027
v 2.150804363 0.873800507 1.061500437
v 2.006977043 0.873800507 1.109879975
v 1.814648712 0.038969858 0.431830615
vt 0.000000000 0.831250000
vt 0.118750000 0.831250000
vt 0.118750000 0.000000000
vt 0.000000000 0.000000000
f 549/549 550/550 551/551 552/552
